<?xml version="1.0" encoding="utf-8"?>
<!-- Generator: Adobe Illustrator 16.0.0, SVG Export Plug-In . SVG Version: 6.00 Build 0)  -->
<!DOCTYPE svg PUBLIC "-//W3C//DTD SVG 1.1//EN" "http://www.w3.org/Graphics/SVG/1.1/DTD/svg11.dtd">
<svg version="1.1" id="Layer_1" xmlns="http://www.w3.org/2000/svg" xmlns:xlink="http://www.w3.org/1999/xlink" x="0px" y="0px"
	 width="528.351px" height="414.549px" viewBox="0 0 528.351 414.549" enable-background="new 0 0 528.351 414.549"
	 xml:space="preserve">
<path fill="#FFFFFF" d="M117.406,90.913l-7.894,31.083H83.53L117.406,0.898h32.889l34.369,121.098h-26.969l-8.551-31.083H117.406z
	 M145.526,70.43l-6.907-25.693c-1.974-7.186-3.946-16.17-5.591-23.356h-0.329c-1.645,7.186-3.289,16.349-5.097,23.356l-6.578,25.693
	H145.526z"/>
<path fill="#FFFFFF" d="M199.453,2.515C207.511,1.078,219.517,0,232.836,0c16.444,0,27.957,2.695,35.848,9.522
	c6.579,5.75,10.197,14.194,10.197,25.333c0,15.452-10.032,26.052-19.571,29.824v0.54c7.73,3.414,12.007,11.499,14.8,22.638
	c3.455,13.655,6.908,29.466,9.047,34.137h-25.654c-1.809-3.414-4.44-13.296-7.728-28.208c-2.962-15.092-7.73-19.225-17.925-19.404
	h-7.564v47.613h-24.832V2.515z M224.285,54.619h9.866c12.498,0,19.899-6.827,19.899-17.427c0-11.14-6.908-16.709-18.417-16.889
	c-6.087,0-9.539,0.539-11.348,0.898V54.619z"/>
<path fill="#FFFFFF" d="M344.988,100.239l-5.524,21.756h-18.188l23.712-84.76h23.021l24.055,84.76h-18.876l-5.983-21.756H344.988z
	 M364.669,85.903l-4.835-17.983c-1.381-5.03-2.762-11.319-3.912-16.348h-0.229c-1.153,5.029-2.304,11.443-3.569,16.348
	l-4.604,17.983H364.669z"/>
<path fill="#FFFFFF" d="M407.832,53.332h-20.833V37.236h59.624v16.096h-21.179v68.664h-17.612V53.332z"/>
<path fill="#FFFFFF" d="M20.833,200.919H0v-16.097h59.624v16.097h-21.18v68.663h-17.61V200.919z"/>
<path fill="#FFFFFF" d="M86.556,184.822v32.569h28.89v-32.569h17.495v84.76h-17.495v-35.464h-28.89v35.464H68.945v-84.76H86.556z"/>
<path fill="#FFFFFF" d="M194.405,233.741H165.86v20.122h31.882v15.719H148.25v-84.76h47.882v15.72H165.86v17.605h28.545V233.741z"/>
<path fill="#FFFFFF" d="M272.003,238.5l-7.894,31.082h-25.983l33.877-121.098h32.889l34.368,121.098h-26.969L303.74,238.5H272.003z
	 M300.123,218.016l-6.905-25.693c-1.974-7.186-3.948-16.17-5.592-23.356h-0.329c-1.645,7.186-3.29,16.349-5.099,23.356
	l-6.577,25.693H300.123z"/>
<path fill="#FFFFFF" d="M354.049,150.101c8.058-1.437,20.062-2.515,33.384-2.515c16.443,0,27.954,2.695,35.85,9.522
	c6.577,5.75,10.193,14.194,10.193,25.333c0,15.451-10.03,26.052-19.567,29.824v0.539c7.728,3.415,12.003,11.5,14.8,22.64
	c3.453,13.655,6.906,29.466,9.044,34.137H412.1c-1.81-3.413-4.44-13.295-7.73-28.208c-2.959-15.092-7.728-19.225-17.924-19.404
	h-7.564v47.612h-24.832V150.101z M378.881,202.205h9.866c12.498,0,19.897-6.828,19.897-17.427c0-11.14-6.907-16.71-18.417-16.889
	c-6.084,0-9.539,0.539-11.347,0.898V202.205z"/>
<path fill="#FFFFFF" d="M472.934,171.481h-29.765v-22.998h85.182v22.998h-30.258v98.1h-25.159V171.481z"/>
<path fill="#FFFFFF" d="M110.579,366.812c-0.493-14.552-0.987-32.16-0.987-49.769h-0.493c-3.454,15.452-8.058,32.701-12.334,46.893
	L83.281,411.19H63.712l-11.84-46.893c-3.619-14.196-7.4-31.444-10.032-47.254h-0.329c-0.658,16.351-1.15,35.035-1.972,50.129
	l-1.974,45.996H14.378l7.071-121.101h33.382l10.854,40.428c3.454,14.013,6.907,29.106,9.374,43.301h0.493
	c3.124-14.014,6.907-30.006,10.524-43.481l11.84-40.247h32.725l6.085,121.101h-24.502L110.579,366.812z"/>
<path fill="#FFFFFF" d="M170.192,328.407V377.2c0,14.588,5.064,22.009,14.042,22.009c9.209,0,14.273-7.045,14.273-22.009v-48.793
	h17.495v47.535c0,26.159-12.086,38.607-32.344,38.607c-19.567,0-31.077-11.82-31.077-38.857v-47.285H170.192z"/>
<path fill="#FFFFFF" d="M231.77,393.423c4.719,2.64,11.971,5.28,19.451,5.28c8.059,0,12.316-3.646,12.316-9.179
	c0-5.28-3.683-8.303-13.006-11.948c-12.892-4.902-21.293-12.7-21.293-25.025c0-14.464,11.048-25.529,29.35-25.529
	c8.749,0,15.194,2.013,19.798,4.277l-3.914,15.469c-3.107-1.636-8.632-4.025-16.229-4.025c-7.597,0-11.278,3.771-11.278,8.174
	c0,5.407,4.373,7.795,14.387,11.947c13.696,5.532,20.144,13.329,20.144,25.276c0,14.211-10.014,26.284-31.307,26.284
	c-8.864,0-17.611-2.514-21.987-5.155L231.77,393.423z"/>
<path fill="#FFFFFF" d="M339.506,377.327h-28.548v20.119h31.884v15.723h-49.493v-84.762h47.883v15.719h-30.273v17.608h28.548
	V377.327z"/>
<path fill="#FFFFFF" d="M372.307,328.407V377.2c0,14.588,5.066,22.009,14.043,22.009c9.208,0,14.272-7.045,14.272-22.009v-48.793
	h17.494v47.535c0,26.159-12.085,38.607-32.343,38.607c-19.565,0-31.075-11.82-31.075-38.857v-47.285H372.307z"/>
<path fill="#FFFFFF" d="M498.918,380.72c-0.346-10.186-0.691-22.51-0.691-34.835h-0.346c-2.417,10.816-5.641,22.891-8.634,32.822
	l-9.438,33.076h-13.695l-8.288-32.822c-2.531-9.938-5.179-22.008-7.021-33.076h-0.23c-0.461,11.445-0.807,24.523-1.383,35.089
	l-1.38,32.194h-16.23l4.949-84.762h23.366l7.597,28.295c2.417,9.808,4.835,20.373,6.561,30.309h0.346
	c2.186-9.811,4.833-21.003,7.368-30.433l8.286-28.171h22.905l4.257,84.762h-17.148L498.918,380.72z"/>
</svg>
